<mxfile host="app.diagrams.net" agent="Mozilla/5.0 (Windows NT 10.0; Win64; x64) AppleWebKit/537.36 (KHTML, like Gecko) Chrome/130.0.0.0 Safari/537.36" version="24.8.4">
  <diagram id="prtHgNgQTEPvFCAcTncT" name="Page-1">
    <mxGraphModel dx="2993" dy="1515" grid="1" gridSize="10" guides="1" tooltips="1" connect="1" arrows="1" fold="1" page="1" pageScale="1" pageWidth="827" pageHeight="1169" math="0" shadow="0">
      <root>
        <mxCell id="0" />
        <mxCell id="1" parent="0" />
        <mxCell id="dNxyNK7c78bLwvsdeMH5-19" value="ChatBotToSap" style="swimlane;html=1;childLayout=stackLayout;resizeParent=1;resizeParentMax=0;horizontal=0;startSize=20;horizontalStack=0;" parent="1" vertex="1">
          <mxGeometry x="120" y="120" width="1280" height="320" as="geometry">
            <mxRectangle x="120" y="120" width="40" height="110" as="alternateBounds" />
          </mxGeometry>
        </mxCell>
        <mxCell id="dNxyNK7c78bLwvsdeMH5-20" value="Chatbot" style="swimlane;html=1;startSize=20;horizontal=0;" parent="dNxyNK7c78bLwvsdeMH5-19" vertex="1">
          <mxGeometry x="20" width="1260" height="80" as="geometry">
            <mxRectangle x="20" width="1010" height="30" as="alternateBounds" />
          </mxGeometry>
        </mxCell>
        <mxCell id="wKt88OQ0RYfQ3Xg1D4fU-57" value="" style="edgeStyle=orthogonalEdgeStyle;rounded=0;orthogonalLoop=1;jettySize=auto;html=1;" edge="1" parent="dNxyNK7c78bLwvsdeMH5-20" source="wKt88OQ0RYfQ3Xg1D4fU-10" target="wKt88OQ0RYfQ3Xg1D4fU-56">
          <mxGeometry relative="1" as="geometry" />
        </mxCell>
        <mxCell id="wKt88OQ0RYfQ3Xg1D4fU-10" value="" style="shape=mxgraph.sap.icon;labelPosition=center;verticalLabelPosition=bottom;align=center;verticalAlign=top;strokeWidth=1;strokeColor=#D5DADD;fillColor=#EDEFF0;gradientColor=#FCFCFC;gradientDirection=west;aspect=fixed;SAPIcon=Identity_Authentication" vertex="1" parent="dNxyNK7c78bLwvsdeMH5-20">
          <mxGeometry x="40" y="15" width="50" height="50" as="geometry" />
        </mxCell>
        <mxCell id="wKt88OQ0RYfQ3Xg1D4fU-56" value="" style="shape=image;editableCssRules=.*;verticalLabelPosition=bottom;labelBackgroundColor=default;verticalAlign=top;aspect=fixed;imageAspect=0;image=data:image/svg+xml,PHN2ZyB4bWxucz0iaHR0cDovL3d3dy53My5vcmcvMjAwMC9zdmciIHZpZXdCb3g9Ii0wLjUgLTAuNSAyOCAyMSIgaGVpZ2h0PSIyMSIgd2lkdGg9IjI4Ij4mI3hhOwkgIDxzdHlsZSB0eXBlPSJ0ZXh0L2NzcyI+LnN0MCB7IHN0b3AtY29sb3I6IHJnYig5MSwgMTE1LCAxMzkpOyB9IC5zdDEgeyBzdG9wLWNvbG9yOiByZ2IoMzQsIDUzLCA3Mik7IH0gPC9zdHlsZT4mI3hhOwk8ZGVmcz4mI3hhOwkJPGxpbmVhckdyYWRpZW50IGdyYWRpZW50VW5pdHM9InVzZXJTcGFjZU9uVXNlIiB5Mj0iMjMuMzI5IiB4Mj0iMTcuMzc1IiB5MT0iMi40ODEiIHgxPSIyLjAzOSIgaWQ9IkEiPiYjeGE7CQkJPHN0b3AgY2xhc3M9InN0MCIvPiYjeGE7CQkJPHN0b3AgY2xhc3M9InN0MSIgb2Zmc2V0PSIxIi8+JiN4YTsJCTwvbGluZWFyR3JhZGllbnQ+JiN4YTsJPC9kZWZzPiYjeGE7CTxwYXRoIGZpbGw9InVybCgjQSkiIGQ9Ik0yMy4yODktLjVjMS4yMDMgMCAyLjIwNi40MTkgMy4wMDggMS4yNTguODAyLjgwMiAxLjIwMyAxLjc4NiAxLjIwMyAyLjk1M3YxMi41NzhjMCAxLjIwMy0uNDAxIDIuMjA2LTEuMjAzIDMuMDA4UzI0LjQ5MiAyMC41IDIzLjI4OSAyMC41SDMuNzExYy0xLjIwMyAwLTIuMjA2LS40MDEtMy4wMDgtMS4yMDNTLS41IDE3LjQ5Mi0uNSAxNi4yODlWMy43MTFDLS41IDIuNTQ0LS4wOTkgMS41Ni43MDMuNzU4IDEuNTA1LS4wODEgMi41MDgtLjUgMy43MTEtLjV6TTMuODIgMi4zNDRjLS4zNjUgMC0uNTgzLjAzNi0uNjU2LjEwOWw5LjYyNSA2LjAxNmMuMjU1LjE0Ni41MjkuMjE5LjgyLjIxOXMuNTI5LS4wNzMuNzExLS4yMTlMMjQgMi40NTNjLS4wNzMtLjA3My0uMTgyLS4xMDktLjMyOC0uMTA5aC0uMzgzem0xOS40NjkgMTUuMzY3Yy45NDggMCAxLjQyMi0uNDc0IDEuNDIyLTEuNDIyVjUuNDA2bC04Ljk2OSA1LjU3OGE0LjEyIDQuMTIgMCAwIDEtMi4yNDIuNjU2Yy0uNzY2IDAtMS41MTMtLjIxOS0yLjI0Mi0uNjU2TDIuMjg5IDUuNDA2djEwLjg4M2MwIC45NDguNDc0IDEuNDIyIDEuNDIyIDEuNDIyeiIvPiYjeGE7PC9zdmc+;" vertex="1" parent="dNxyNK7c78bLwvsdeMH5-20">
          <mxGeometry x="110" y="21.25" width="50" height="37.5" as="geometry" />
        </mxCell>
        <mxCell id="wKt88OQ0RYfQ3Xg1D4fU-89" value="" style="shape=image;editableCssRules=.*;verticalLabelPosition=bottom;labelBackgroundColor=default;verticalAlign=top;aspect=fixed;imageAspect=0;image=data:image/svg+xml,PHN2ZyB4bWxucz0iaHR0cDovL3d3dy53My5vcmcvMjAwMC9zdmciIHZpZXdCb3g9Ii0wLjUgLTAuNSAyOC4xNTUgMjgiIGhlaWdodD0iMjgiIHdpZHRoPSIyOC4xNTUiPiYjeGE7CSAgPHN0eWxlIHR5cGU9InRleHQvY3NzIj4uc3QwIHsgc3RvcC1jb2xvcjogcmdiKDkxLCAxMTUsIDEzOSk7IH0gLnN0MSB7IHN0b3AtY29sb3I6IHJnYigzNCwgNTMsIDcyKTsgfSA8L3N0eWxlPiYjeGE7CTxkZWZzPiYjeGE7CQk8bGluZWFyR3JhZGllbnQgZ3JhZGllbnRVbml0cz0idXNlclNwYWNlT25Vc2UiIHkyPSIyNS40MjgiIHgyPSIyMy40NjYiIHkxPSIzLjQ3NCIgeDE9IjIuMDUzIiBpZD0iQSI+JiN4YTsJCQk8c3RvcCBjbGFzcz0ic3QwIi8+JiN4YTsJCQk8c3RvcCBjbGFzcz0ic3QxIiBvZmZzZXQ9IjEiLz4mI3hhOwkJPC9saW5lYXJHcmFkaWVudD4mI3hhOwk8L2RlZnM+JiN4YTsJPHBhdGggZmlsbD0idXJsKCNBKSIgZD0iTTguOTEgOC40MzljLS42NzguMTgxLTEuMTMuNTUzLTEuNDMzIDEuMTY3bC0uMjA5LjQxNnY2Ljk2MmwuMTc2LjM2N2EyLjE3IDIuMTcgMCAwIDAgMS40ODggMS4yMjJjLjQ3NC4xMiA4LjgxNy4xMiA5LjI5MSAwYTIuMTcgMi4xNyAwIDAgMCAxLjQ4OC0xLjIyMmwuMTc2LS4zNjd2LTYuOTYybC0uMjA5LS40MTZhMi4wOCAyLjA4IDAgMCAwLTEuNDU1LTEuMTY3Yy0uNDU3LS4xMi04Ljg3Mi0uMTE1LTkuMzEzIDB6bTcuMjg1IDIuMTI1Yy0uMDYxLjA0NC0uNjk0LjQyNy0xLjQxMS44NTRsLTEuMjk1Ljc3OC0xLjM1LS44MzMtMS4zNjctLjg0OWMtLjAxMS0uMDExIDEuMjIzLS4wMjIgMi43NTUtLjAyMmwyLjY2Ny4wNzF6bTEuNTk4IDUuODgzYy0uMDM5LjEwNC04LjM5Mi4xMDQtOC40MzEgMC0uMDE3LS4wMzMtLjAyMi0xLjAyNC0uMDE3LTIuMTkxbC4wMTctMi4xMjUgMS41OTguOTkxYzEuODI5IDEuMTM0IDIuMDc3IDEuMjM4IDIuNzYxIDEuMTg5LjU0LS4wMzguNjk0LS4xMTUgMi41MjktMS4yNmwxLjU0My0uOTU5LjAxNyAyLjE0Mi0uMDE3IDIuMjEzek0xMi41MDMtLjQ4NEM4LjkxNi0uMTE3IDYuMDA2IDEuMjIgMy42MDkgMy41OTcgMS4zODMgNS44MS4wMzMgOC41NDktLjQzIDExLjc4MWMtLjA5NC42NDYtLjA5NCAyLjgwNSAwIDMuNDUxLjQ2MyAzLjIzMiAxLjgxMyA1Ljk3MSA0LjAzOSA4LjE4NHM0Ljk4MSAzLjU1NSA4LjIzMiA0LjAxNWMuNjUuMDkzIDIuODIxLjA5MyAzLjQ3MiAwIDMuMjUxLS40NiA2LjAwNi0xLjgwMiA4LjIzMy00LjAxNXMzLjU3Ni00Ljk1MiA0LjAzOS04LjE4NGMuMDk0LS42NDYuMDk0LTIuODA0IDAtMy40NTEtLjQ2My0zLjIzMi0xLjgxMy01Ljk3MS00LjAzOS04LjE4NC0yLjE3MS0yLjE1OC00Ljg3MS0zLjUtNy45ODUtMy45NzdhMjQuMjYgMjQuMjYgMCAwIDAtMy4wNTgtLjEwNHptMi44NzEgMi45MmM0LjgxMS43ODkgOC41MTkgNC40ODYgOS4zNDYgOS4zMTdhMTIuNDUgMTIuNDUgMCAwIDEgMCAzLjUwNmMtLjgyNiA0Ljg0Mi00LjUwNyA4LjUwMS05LjM3OSA5LjMyM2ExMi42OCAxMi42OCAwIDAgMS0zLjUyNyAwYy00Ljg3MS0uODIyLTguNTUyLTQuNDgxLTkuMzc5LTkuMzIzLS4xNjUtLjk2OS0uMTY1LTIuNTM2IDAtMy41MDYuNDA4LTIuMzk0IDEuNDg4LTQuNDgxIDMuMTgtNi4xNjIgMS44NjgtMS44NjIgNC4yMzItMi45NjkgNi45NDMtMy4yNTkuNjU2LS4wNzEgMi4wNTUtLjAxNiAyLjgxNi4xMDR6Ii8+JiN4YTs8L3N2Zz4=;" vertex="1" parent="dNxyNK7c78bLwvsdeMH5-20">
          <mxGeometry x="620" y="15" width="50" height="50" as="geometry" />
        </mxCell>
        <mxCell id="wKt88OQ0RYfQ3Xg1D4fU-112" value="" style="shape=image;editableCssRules=.*;verticalLabelPosition=bottom;labelBackgroundColor=default;verticalAlign=top;aspect=fixed;imageAspect=0;image=data:image/svg+xml,PHN2ZyB4bWxucz0iaHR0cDovL3d3dy53My5vcmcvMjAwMC9zdmciIHZpZXdCb3g9Ii0wLjUgLTAuNSAyOC4xNTUgMjgiIGhlaWdodD0iMjgiIHdpZHRoPSIyOC4xNTUiPiYjeGE7CSAgPHN0eWxlIHR5cGU9InRleHQvY3NzIj4uc3QwIHsgc3RvcC1jb2xvcjogcmdiKDkxLCAxMTUsIDEzOSk7IH0gLnN0MSB7IHN0b3AtY29sb3I6IHJnYigzNCwgNTMsIDcyKTsgfSA8L3N0eWxlPiYjeGE7CTxkZWZzPiYjeGE7CQk8bGluZWFyR3JhZGllbnQgZ3JhZGllbnRVbml0cz0idXNlclNwYWNlT25Vc2UiIHkyPSIyNS40MjgiIHgyPSIyMy40NjYiIHkxPSIzLjQ3NCIgeDE9IjIuMDUzIiBpZD0iQSI+JiN4YTsJCQk8c3RvcCBjbGFzcz0ic3QwIi8+JiN4YTsJCQk8c3RvcCBjbGFzcz0ic3QxIiBvZmZzZXQ9IjEiLz4mI3hhOwkJPC9saW5lYXJHcmFkaWVudD4mI3hhOwk8L2RlZnM+JiN4YTsJPHBhdGggZmlsbD0idXJsKCNBKSIgZD0iTTguOTEgOC40MzljLS42NzguMTgxLTEuMTMuNTUzLTEuNDMzIDEuMTY3bC0uMjA5LjQxNnY2Ljk2MmwuMTc2LjM2N2EyLjE3IDIuMTcgMCAwIDAgMS40ODggMS4yMjJjLjQ3NC4xMiA4LjgxNy4xMiA5LjI5MSAwYTIuMTcgMi4xNyAwIDAgMCAxLjQ4OC0xLjIyMmwuMTc2LS4zNjd2LTYuOTYybC0uMjA5LS40MTZhMi4wOCAyLjA4IDAgMCAwLTEuNDU1LTEuMTY3Yy0uNDU3LS4xMi04Ljg3Mi0uMTE1LTkuMzEzIDB6bTcuMjg1IDIuMTI1Yy0uMDYxLjA0NC0uNjk0LjQyNy0xLjQxMS44NTRsLTEuMjk1Ljc3OC0xLjM1LS44MzMtMS4zNjctLjg0OWMtLjAxMS0uMDExIDEuMjIzLS4wMjIgMi43NTUtLjAyMmwyLjY2Ny4wNzF6bTEuNTk4IDUuODgzYy0uMDM5LjEwNC04LjM5Mi4xMDQtOC40MzEgMC0uMDE3LS4wMzMtLjAyMi0xLjAyNC0uMDE3LTIuMTkxbC4wMTctMi4xMjUgMS41OTguOTkxYzEuODI5IDEuMTM0IDIuMDc3IDEuMjM4IDIuNzYxIDEuMTg5LjU0LS4wMzguNjk0LS4xMTUgMi41MjktMS4yNmwxLjU0My0uOTU5LjAxNyAyLjE0Mi0uMDE3IDIuMjEzek0xMi41MDMtLjQ4NEM4LjkxNi0uMTE3IDYuMDA2IDEuMjIgMy42MDkgMy41OTcgMS4zODMgNS44MS4wMzMgOC41NDktLjQzIDExLjc4MWMtLjA5NC42NDYtLjA5NCAyLjgwNSAwIDMuNDUxLjQ2MyAzLjIzMiAxLjgxMyA1Ljk3MSA0LjAzOSA4LjE4NHM0Ljk4MSAzLjU1NSA4LjIzMiA0LjAxNWMuNjUuMDkzIDIuODIxLjA5MyAzLjQ3MiAwIDMuMjUxLS40NiA2LjAwNi0xLjgwMiA4LjIzMy00LjAxNXMzLjU3Ni00Ljk1MiA0LjAzOS04LjE4NGMuMDk0LS42NDYuMDk0LTIuODA0IDAtMy40NTEtLjQ2My0zLjIzMi0xLjgxMy01Ljk3MS00LjAzOS04LjE4NC0yLjE3MS0yLjE1OC00Ljg3MS0zLjUtNy45ODUtMy45NzdhMjQuMjYgMjQuMjYgMCAwIDAtMy4wNTgtLjEwNHptMi44NzEgMi45MmM0LjgxMS43ODkgOC41MTkgNC40ODYgOS4zNDYgOS4zMTdhMTIuNDUgMTIuNDUgMCAwIDEgMCAzLjUwNmMtLjgyNiA0Ljg0Mi00LjUwNyA4LjUwMS05LjM3OSA5LjMyM2ExMi42OCAxMi42OCAwIDAgMS0zLjUyNyAwYy00Ljg3MS0uODIyLTguNTUyLTQuNDgxLTkuMzc5LTkuMzIzLS4xNjUtLjk2OS0uMTY1LTIuNTM2IDAtMy41MDYuNDA4LTIuMzk0IDEuNDg4LTQuNDgxIDMuMTgtNi4xNjIgMS44NjgtMS44NjIgNC4yMzItMi45NjkgNi45NDMtMy4yNTkuNjU2LS4wNzEgMi4wNTUtLjAxNiAyLjgxNi4xMDR6Ii8+JiN4YTs8L3N2Zz4=;" vertex="1" parent="dNxyNK7c78bLwvsdeMH5-20">
          <mxGeometry x="1150" y="15" width="50" height="50" as="geometry" />
        </mxCell>
        <mxCell id="dNxyNK7c78bLwvsdeMH5-21" value="SAP CPI" style="swimlane;html=1;startSize=20;horizontal=0;" parent="dNxyNK7c78bLwvsdeMH5-19" vertex="1">
          <mxGeometry x="20" y="80" width="1260" height="80" as="geometry">
            <mxRectangle x="20" y="30" width="1010" height="30" as="alternateBounds" />
          </mxGeometry>
        </mxCell>
        <mxCell id="wKt88OQ0RYfQ3Xg1D4fU-60" value="" style="edgeStyle=orthogonalEdgeStyle;rounded=0;orthogonalLoop=1;jettySize=auto;html=1;" edge="1" parent="dNxyNK7c78bLwvsdeMH5-21" source="wKt88OQ0RYfQ3Xg1D4fU-16" target="wKt88OQ0RYfQ3Xg1D4fU-55">
          <mxGeometry relative="1" as="geometry" />
        </mxCell>
        <mxCell id="wKt88OQ0RYfQ3Xg1D4fU-116" value="Process Direct" style="edgeLabel;html=1;align=center;verticalAlign=middle;resizable=0;points=[];" vertex="1" connectable="0" parent="wKt88OQ0RYfQ3Xg1D4fU-60">
          <mxGeometry x="-0.1324" y="-1" relative="1" as="geometry">
            <mxPoint as="offset" />
          </mxGeometry>
        </mxCell>
        <mxCell id="wKt88OQ0RYfQ3Xg1D4fU-16" value="" style="shape=mxgraph.sap.icon;labelPosition=center;verticalLabelPosition=bottom;align=center;verticalAlign=top;strokeWidth=1;strokeColor=#D5DADD;fillColor=#EDEFF0;gradientColor=#FCFCFC;gradientDirection=west;aspect=fixed;SAPIcon=SAP_Integration_Suite" vertex="1" parent="dNxyNK7c78bLwvsdeMH5-21">
          <mxGeometry x="110" y="15" width="50" height="50" as="geometry" />
        </mxCell>
        <mxCell id="wKt88OQ0RYfQ3Xg1D4fU-55" value="" style="shape=image;editableCssRules=.*;verticalLabelPosition=bottom;labelBackgroundColor=default;verticalAlign=top;aspect=fixed;imageAspect=0;image=data:image/svg+xml,PHN2ZyB4bWxucz0iaHR0cDovL3d3dy53My5vcmcvMjAwMC9zdmciIHZpZXdCb3g9Ii0wLjUgLTAuNSAyOCAyMSIgaGVpZ2h0PSIyMSIgd2lkdGg9IjI4Ij4mI3hhOwkgIDxzdHlsZSB0eXBlPSJ0ZXh0L2NzcyI+LnN0MCB7IHN0b3AtY29sb3I6IHJnYigzNSwgMTQ5LCAyNTUpOyB9IC5zdDEgeyBzdG9wLWNvbG9yOiByZ2IoMCwgODcsIDIxMCk7IH0gPC9zdHlsZT4mI3hhOwk8ZGVmcz4mI3hhOwkJPGxpbmVhckdyYWRpZW50IGdyYWRpZW50VW5pdHM9InVzZXJTcGFjZU9uVXNlIiB5Mj0iMjMuMzI5IiB4Mj0iMTcuMzc1IiB5MT0iMi40ODEiIHgxPSIyLjAzOSIgaWQ9IkEiPiYjeGE7CQkJPHN0b3AgY2xhc3M9InN0MCIvPiYjeGE7CQkJPHN0b3AgY2xhc3M9InN0MSIgb2Zmc2V0PSIxIi8+JiN4YTsJCTwvbGluZWFyR3JhZGllbnQ+JiN4YTsJPC9kZWZzPiYjeGE7CTxwYXRoIGZpbGw9InVybCgjQSkiIGQ9Ik0yMy4yODktLjVjMS4yMDMgMCAyLjIwNi40MTkgMy4wMDggMS4yNTguODAyLjgwMiAxLjIwMyAxLjc4NiAxLjIwMyAyLjk1M3YxMi41NzhjMCAxLjIwMy0uNDAxIDIuMjA2LTEuMjAzIDMuMDA4UzI0LjQ5MiAyMC41IDIzLjI4OSAyMC41SDMuNzExYy0xLjIwMyAwLTIuMjA2LS40MDEtMy4wMDgtMS4yMDNTLS41IDE3LjQ5Mi0uNSAxNi4yODlWMy43MTFDLS41IDIuNTQ0LS4wOTkgMS41Ni43MDMuNzU4IDEuNTA1LS4wODEgMi41MDgtLjUgMy43MTEtLjV6TTMuODIgMi4zNDRjLS4zNjUgMC0uNTgzLjAzNi0uNjU2LjEwOWw5LjYyNSA2LjAxNmMuMjU1LjE0Ni41MjkuMjE5LjgyLjIxOXMuNTI5LS4wNzMuNzExLS4yMTlMMjQgMi40NTNjLS4wNzMtLjA3My0uMTgyLS4xMDktLjMyOC0uMTA5aC0uMzgzem0xOS40NjkgMTUuMzY3Yy45NDggMCAxLjQyMi0uNDc0IDEuNDIyLTEuNDIyVjUuNDA2bC04Ljk2OSA1LjU3OGE0LjEyIDQuMTIgMCAwIDEtMi4yNDIuNjU2Yy0uNzY2IDAtMS41MTMtLjIxOS0yLjI0Mi0uNjU2TDIuMjg5IDUuNDA2djEwLjg4M2MwIC45NDguNDc0IDEuNDIyIDEuNDIyIDEuNDIyeiIvPiYjeGE7PC9zdmc+;" vertex="1" parent="dNxyNK7c78bLwvsdeMH5-21">
          <mxGeometry x="274" y="21.25" width="50" height="37.5" as="geometry" />
        </mxCell>
        <mxCell id="wKt88OQ0RYfQ3Xg1D4fU-79" value="" style="edgeStyle=orthogonalEdgeStyle;rounded=0;orthogonalLoop=1;jettySize=auto;html=1;" edge="1" parent="dNxyNK7c78bLwvsdeMH5-21" source="wKt88OQ0RYfQ3Xg1D4fU-70" target="wKt88OQ0RYfQ3Xg1D4fU-78">
          <mxGeometry relative="1" as="geometry" />
        </mxCell>
        <mxCell id="wKt88OQ0RYfQ3Xg1D4fU-70" value="" style="shape=image;editableCssRules=.*;verticalLabelPosition=bottom;labelBackgroundColor=default;verticalAlign=top;aspect=fixed;imageAspect=0;image=data:image/svg+xml,PHN2ZyB4bWxucz0iaHR0cDovL3d3dy53My5vcmcvMjAwMC9zdmciIHZpZXdCb3g9Ii0wLjUgLTAuNSAyOCAyMSIgaGVpZ2h0PSIyMSIgd2lkdGg9IjI4Ij4mI3hhOwkgIDxzdHlsZSB0eXBlPSJ0ZXh0L2NzcyI+LnN0MCB7IHN0b3AtY29sb3I6IHJnYig5MSwgMTE1LCAxMzkpOyB9IC5zdDEgeyBzdG9wLWNvbG9yOiByZ2IoMzQsIDUzLCA3Mik7IH0gPC9zdHlsZT4mI3hhOwk8ZGVmcz4mI3hhOwkJPGxpbmVhckdyYWRpZW50IGdyYWRpZW50VW5pdHM9InVzZXJTcGFjZU9uVXNlIiB5Mj0iMjMuMzI5IiB4Mj0iMTcuMzc1IiB5MT0iMi40ODEiIHgxPSIyLjAzOSIgaWQ9IkEiPiYjeGE7CQkJPHN0b3AgY2xhc3M9InN0MCIvPiYjeGE7CQkJPHN0b3AgY2xhc3M9InN0MSIgb2Zmc2V0PSIxIi8+JiN4YTsJCTwvbGluZWFyR3JhZGllbnQ+JiN4YTsJPC9kZWZzPiYjeGE7CTxwYXRoIGZpbGw9InVybCgjQSkiIGQ9Ik0yMy4yODktLjVjMS4yMDMgMCAyLjIwNi40MTkgMy4wMDggMS4yNTguODAyLjgwMiAxLjIwMyAxLjc4NiAxLjIwMyAyLjk1M3YxMi41NzhjMCAxLjIwMy0uNDAxIDIuMjA2LTEuMjAzIDMuMDA4UzI0LjQ5MiAyMC41IDIzLjI4OSAyMC41SDMuNzExYy0xLjIwMyAwLTIuMjA2LS40MDEtMy4wMDgtMS4yMDNTLS41IDE3LjQ5Mi0uNSAxNi4yODlWMy43MTFDLS41IDIuNTQ0LS4wOTkgMS41Ni43MDMuNzU4IDEuNTA1LS4wODEgMi41MDgtLjUgMy43MTEtLjV6TTMuODIgMi4zNDRjLS4zNjUgMC0uNTgzLjAzNi0uNjU2LjEwOWw5LjYyNSA2LjAxNmMuMjU1LjE0Ni41MjkuMjE5LjgyLjIxOXMuNTI5LS4wNzMuNzExLS4yMTlMMjQgMi40NTNjLS4wNzMtLjA3My0uMTgyLS4xMDktLjMyOC0uMTA5aC0uMzgzem0xOS40NjkgMTUuMzY3Yy45NDggMCAxLjQyMi0uNDc0IDEuNDIyLTEuNDIyVjUuNDA2bC04Ljk2OSA1LjU3OGE0LjEyIDQuMTIgMCAwIDEtMi4yNDIuNjU2Yy0uNzY2IDAtMS41MTMtLjIxOS0yLjI0Mi0uNjU2TDIuMjg5IDUuNDA2djEwLjg4M2MwIC45NDguNDc0IDEuNDIyIDEuNDIyIDEuNDIyeiIvPiYjeGE7PC9zdmc+;" vertex="1" parent="dNxyNK7c78bLwvsdeMH5-21">
          <mxGeometry x="440" y="21.25" width="50" height="37.5" as="geometry" />
        </mxCell>
        <mxCell id="wKt88OQ0RYfQ3Xg1D4fU-76" value="" style="rhombus;whiteSpace=wrap;html=1;" vertex="1" parent="dNxyNK7c78bLwvsdeMH5-21">
          <mxGeometry x="620" y="15" width="50" height="50" as="geometry" />
        </mxCell>
        <mxCell id="wKt88OQ0RYfQ3Xg1D4fU-80" value="" style="edgeStyle=orthogonalEdgeStyle;rounded=0;orthogonalLoop=1;jettySize=auto;html=1;" edge="1" parent="dNxyNK7c78bLwvsdeMH5-21" source="wKt88OQ0RYfQ3Xg1D4fU-78" target="wKt88OQ0RYfQ3Xg1D4fU-76">
          <mxGeometry relative="1" as="geometry" />
        </mxCell>
        <mxCell id="wKt88OQ0RYfQ3Xg1D4fU-78" value="" style="shape=image;editableCssRules=.*;verticalLabelPosition=bottom;labelBackgroundColor=default;verticalAlign=top;aspect=fixed;imageAspect=0;image=data:image/svg+xml,PHN2ZyB4bWxucz0iaHR0cDovL3d3dy53My5vcmcvMjAwMC9zdmciIHZpZXdCb3g9Ii0wLjUgLTAuNSAyOCAyMSIgaGVpZ2h0PSIyMSIgd2lkdGg9IjI4Ij4mI3hhOwkgIDxzdHlsZSB0eXBlPSJ0ZXh0L2NzcyI+LnN0MCB7IHN0b3AtY29sb3I6IHJnYigzNSwgMTQ5LCAyNTUpOyB9IC5zdDEgeyBzdG9wLWNvbG9yOiByZ2IoMCwgODcsIDIxMCk7IH0gPC9zdHlsZT4mI3hhOwk8ZGVmcz4mI3hhOwkJPGxpbmVhckdyYWRpZW50IGdyYWRpZW50VW5pdHM9InVzZXJTcGFjZU9uVXNlIiB5Mj0iMjMuMzI5IiB4Mj0iMTcuMzc1IiB5MT0iMi40ODEiIHgxPSIyLjAzOSIgaWQ9IkEiPiYjeGE7CQkJPHN0b3AgY2xhc3M9InN0MCIvPiYjeGE7CQkJPHN0b3AgY2xhc3M9InN0MSIgb2Zmc2V0PSIxIi8+JiN4YTsJCTwvbGluZWFyR3JhZGllbnQ+JiN4YTsJPC9kZWZzPiYjeGE7CTxwYXRoIGZpbGw9InVybCgjQSkiIGQ9Ik0yMy4yODktLjVjMS4yMDMgMCAyLjIwNi40MTkgMy4wMDggMS4yNTguODAyLjgwMiAxLjIwMyAxLjc4NiAxLjIwMyAyLjk1M3YxMi41NzhjMCAxLjIwMy0uNDAxIDIuMjA2LTEuMjAzIDMuMDA4UzI0LjQ5MiAyMC41IDIzLjI4OSAyMC41SDMuNzExYy0xLjIwMyAwLTIuMjA2LS40MDEtMy4wMDgtMS4yMDNTLS41IDE3LjQ5Mi0uNSAxNi4yODlWMy43MTFDLS41IDIuNTQ0LS4wOTkgMS41Ni43MDMuNzU4IDEuNTA1LS4wODEgMi41MDgtLjUgMy43MTEtLjV6TTMuODIgMi4zNDRjLS4zNjUgMC0uNTgzLjAzNi0uNjU2LjEwOWw5LjYyNSA2LjAxNmMuMjU1LjE0Ni41MjkuMjE5LjgyLjIxOXMuNTI5LS4wNzMuNzExLS4yMTlMMjQgMi40NTNjLS4wNzMtLjA3My0uMTgyLS4xMDktLjMyOC0uMTA5aC0uMzgzem0xOS40NjkgMTUuMzY3Yy45NDggMCAxLjQyMi0uNDc0IDEuNDIyLTEuNDIyVjUuNDA2bC04Ljk2OSA1LjU3OGE0LjEyIDQuMTIgMCAwIDEtMi4yNDIuNjU2Yy0uNzY2IDAtMS41MTMtLjIxOS0yLjI0Mi0uNjU2TDIuMjg5IDUuNDA2djEwLjg4M2MwIC45NDguNDc0IDEuNDIyIDEuNDIyIDEuNDIyeiIvPiYjeGE7PC9zdmc+;" vertex="1" parent="dNxyNK7c78bLwvsdeMH5-21">
          <mxGeometry x="530" y="21.25" width="50" height="37.5" as="geometry" />
        </mxCell>
        <mxCell id="wKt88OQ0RYfQ3Xg1D4fU-102" value="" style="edgeStyle=orthogonalEdgeStyle;rounded=0;orthogonalLoop=1;jettySize=auto;html=1;" edge="1" parent="dNxyNK7c78bLwvsdeMH5-21" source="wKt88OQ0RYfQ3Xg1D4fU-99" target="wKt88OQ0RYfQ3Xg1D4fU-101">
          <mxGeometry relative="1" as="geometry" />
        </mxCell>
        <mxCell id="wKt88OQ0RYfQ3Xg1D4fU-121" value="ProcessDirect" style="edgeLabel;html=1;align=center;verticalAlign=middle;resizable=0;points=[];" vertex="1" connectable="0" parent="wKt88OQ0RYfQ3Xg1D4fU-102">
          <mxGeometry x="-0.0212" y="1" relative="1" as="geometry">
            <mxPoint as="offset" />
          </mxGeometry>
        </mxCell>
        <mxCell id="wKt88OQ0RYfQ3Xg1D4fU-99" value="" style="shape=image;editableCssRules=.*;verticalLabelPosition=bottom;labelBackgroundColor=default;verticalAlign=top;aspect=fixed;imageAspect=0;image=data:image/svg+xml,PHN2ZyB4bWxucz0iaHR0cDovL3d3dy53My5vcmcvMjAwMC9zdmciIHZpZXdCb3g9Ii0wLjUgLTAuNSAyOCAyMSIgaGVpZ2h0PSIyMSIgd2lkdGg9IjI4Ij4mI3hhOwkgIDxzdHlsZSB0eXBlPSJ0ZXh0L2NzcyI+LnN0MCB7IHN0b3AtY29sb3I6IHJnYigzNSwgMTQ5LCAyNTUpOyB9IC5zdDEgeyBzdG9wLWNvbG9yOiByZ2IoMCwgODcsIDIxMCk7IH0gPC9zdHlsZT4mI3hhOwk8ZGVmcz4mI3hhOwkJPGxpbmVhckdyYWRpZW50IGdyYWRpZW50VW5pdHM9InVzZXJTcGFjZU9uVXNlIiB5Mj0iMjMuMzI5IiB4Mj0iMTcuMzc1IiB5MT0iMi40ODEiIHgxPSIyLjAzOSIgaWQ9IkEiPiYjeGE7CQkJPHN0b3AgY2xhc3M9InN0MCIvPiYjeGE7CQkJPHN0b3AgY2xhc3M9InN0MSIgb2Zmc2V0PSIxIi8+JiN4YTsJCTwvbGluZWFyR3JhZGllbnQ+JiN4YTsJPC9kZWZzPiYjeGE7CTxwYXRoIGZpbGw9InVybCgjQSkiIGQ9Ik0yMy4yODktLjVjMS4yMDMgMCAyLjIwNi40MTkgMy4wMDggMS4yNTguODAyLjgwMiAxLjIwMyAxLjc4NiAxLjIwMyAyLjk1M3YxMi41NzhjMCAxLjIwMy0uNDAxIDIuMjA2LTEuMjAzIDMuMDA4UzI0LjQ5MiAyMC41IDIzLjI4OSAyMC41SDMuNzExYy0xLjIwMyAwLTIuMjA2LS40MDEtMy4wMDgtMS4yMDNTLS41IDE3LjQ5Mi0uNSAxNi4yODlWMy43MTFDLS41IDIuNTQ0LS4wOTkgMS41Ni43MDMuNzU4IDEuNTA1LS4wODEgMi41MDgtLjUgMy43MTEtLjV6TTMuODIgMi4zNDRjLS4zNjUgMC0uNTgzLjAzNi0uNjU2LjEwOWw5LjYyNSA2LjAxNmMuMjU1LjE0Ni41MjkuMjE5LjgyLjIxOXMuNTI5LS4wNzMuNzExLS4yMTlMMjQgMi40NTNjLS4wNzMtLjA3My0uMTgyLS4xMDktLjMyOC0uMTA5aC0uMzgzem0xOS40NjkgMTUuMzY3Yy45NDggMCAxLjQyMi0uNDc0IDEuNDIyLTEuNDIyVjUuNDA2bC04Ljk2OSA1LjU3OGE0LjEyIDQuMTIgMCAwIDEtMi4yNDIuNjU2Yy0uNzY2IDAtMS41MTMtLjIxOS0yLjI0Mi0uNjU2TDIuMjg5IDUuNDA2djEwLjg4M2MwIC45NDguNDc0IDEuNDIyIDEuNDIyIDEuNDIyeiIvPiYjeGE7PC9zdmc+;" vertex="1" parent="dNxyNK7c78bLwvsdeMH5-21">
          <mxGeometry x="710" y="21.25" width="50" height="37.5" as="geometry" />
        </mxCell>
        <mxCell id="wKt88OQ0RYfQ3Xg1D4fU-101" value="" style="shape=image;editableCssRules=.*;verticalLabelPosition=bottom;labelBackgroundColor=default;verticalAlign=top;aspect=fixed;imageAspect=0;image=data:image/svg+xml,PHN2ZyB4bWxucz0iaHR0cDovL3d3dy53My5vcmcvMjAwMC9zdmciIHZpZXdCb3g9Ii0wLjUgLTAuNSAyOCAyMSIgaGVpZ2h0PSIyMSIgd2lkdGg9IjI4Ij4mI3hhOwkgIDxzdHlsZSB0eXBlPSJ0ZXh0L2NzcyI+LnN0MCB7IHN0b3AtY29sb3I6IHJnYigzNSwgMTQ5LCAyNTUpOyB9IC5zdDEgeyBzdG9wLWNvbG9yOiByZ2IoMCwgODcsIDIxMCk7IH0gPC9zdHlsZT4mI3hhOwk8ZGVmcz4mI3hhOwkJPGxpbmVhckdyYWRpZW50IGdyYWRpZW50VW5pdHM9InVzZXJTcGFjZU9uVXNlIiB5Mj0iMjMuMzI5IiB4Mj0iMTcuMzc1IiB5MT0iMi40ODEiIHgxPSIyLjAzOSIgaWQ9IkEiPiYjeGE7CQkJPHN0b3AgY2xhc3M9InN0MCIvPiYjeGE7CQkJPHN0b3AgY2xhc3M9InN0MSIgb2Zmc2V0PSIxIi8+JiN4YTsJCTwvbGluZWFyR3JhZGllbnQ+JiN4YTsJPC9kZWZzPiYjeGE7CTxwYXRoIGZpbGw9InVybCgjQSkiIGQ9Ik0yMy4yODktLjVjMS4yMDMgMCAyLjIwNi40MTkgMy4wMDggMS4yNTguODAyLjgwMiAxLjIwMyAxLjc4NiAxLjIwMyAyLjk1M3YxMi41NzhjMCAxLjIwMy0uNDAxIDIuMjA2LTEuMjAzIDMuMDA4UzI0LjQ5MiAyMC41IDIzLjI4OSAyMC41SDMuNzExYy0xLjIwMyAwLTIuMjA2LS40MDEtMy4wMDgtMS4yMDNTLS41IDE3LjQ5Mi0uNSAxNi4yODlWMy43MTFDLS41IDIuNTQ0LS4wOTkgMS41Ni43MDMuNzU4IDEuNTA1LS4wODEgMi41MDgtLjUgMy43MTEtLjV6TTMuODIgMi4zNDRjLS4zNjUgMC0uNTgzLjAzNi0uNjU2LjEwOWw5LjYyNSA2LjAxNmMuMjU1LjE0Ni41MjkuMjE5LjgyLjIxOXMuNTI5LS4wNzMuNzExLS4yMTlMMjQgMi40NTNjLS4wNzMtLjA3My0uMTgyLS4xMDktLjMyOC0uMTA5aC0uMzgzem0xOS40NjkgMTUuMzY3Yy45NDggMCAxLjQyMi0uNDc0IDEuNDIyLTEuNDIyVjUuNDA2bC04Ljk2OSA1LjU3OGE0LjEyIDQuMTIgMCAwIDEtMi4yNDIuNjU2Yy0uNzY2IDAtMS41MTMtLjIxOS0yLjI0Mi0uNjU2TDIuMjg5IDUuNDA2djEwLjg4M2MwIC45NDguNDc0IDEuNDIyIDEuNDIyIDEuNDIyeiIvPiYjeGE7PC9zdmc+;" vertex="1" parent="dNxyNK7c78bLwvsdeMH5-21">
          <mxGeometry x="870" y="21.25" width="50" height="37.5" as="geometry" />
        </mxCell>
        <mxCell id="wKt88OQ0RYfQ3Xg1D4fU-114" value="" style="edgeStyle=orthogonalEdgeStyle;rounded=0;orthogonalLoop=1;jettySize=auto;html=1;" edge="1" parent="dNxyNK7c78bLwvsdeMH5-21" source="wKt88OQ0RYfQ3Xg1D4fU-109" target="wKt88OQ0RYfQ3Xg1D4fU-113">
          <mxGeometry relative="1" as="geometry" />
        </mxCell>
        <mxCell id="wKt88OQ0RYfQ3Xg1D4fU-109" value="" style="shape=image;editableCssRules=.*;verticalLabelPosition=bottom;labelBackgroundColor=default;verticalAlign=top;aspect=fixed;imageAspect=0;image=data:image/svg+xml,PHN2ZyB4bWxucz0iaHR0cDovL3d3dy53My5vcmcvMjAwMC9zdmciIHZpZXdCb3g9Ii0wLjUgLTAuNSAyOCAyMSIgaGVpZ2h0PSIyMSIgd2lkdGg9IjI4Ij4mI3hhOwkgIDxzdHlsZSB0eXBlPSJ0ZXh0L2NzcyI+JiN4YTsJCS5zdDB7c3RvcC1jb2xvcjojMDBjZWFjO30mI3hhOwkJLnN0MXtzdG9wLWNvbG9yOiMwNzgzOGY7fSYjeGE7CSAgPC9zdHlsZT4mI3hhOwk8ZGVmcz4mI3hhOwkJPGxpbmVhckdyYWRpZW50IGdyYWRpZW50VW5pdHM9InVzZXJTcGFjZU9uVXNlIiB5Mj0iMjMuMzI5IiB4Mj0iMTcuMzc1IiB5MT0iMi40ODEiIHgxPSIyLjAzOSIgaWQ9IkEiPiYjeGE7CQkJPHN0b3AgY2xhc3M9InN0MCIvPiYjeGE7CQkJPHN0b3AgY2xhc3M9InN0MSIgb2Zmc2V0PSIxIi8+JiN4YTsJCTwvbGluZWFyR3JhZGllbnQ+JiN4YTsJPC9kZWZzPiYjeGE7CTxwYXRoIGZpbGw9InVybCgjQSkiIGQ9Ik0yMy4yODktLjVjMS4yMDMgMCAyLjIwNi40MTkgMy4wMDggMS4yNTguODAyLjgwMiAxLjIwMyAxLjc4NiAxLjIwMyAyLjk1M3YxMi41NzhjMCAxLjIwMy0uNDAxIDIuMjA2LTEuMjAzIDMuMDA4UzI0LjQ5MiAyMC41IDIzLjI4OSAyMC41SDMuNzExYy0xLjIwMyAwLTIuMjA2LS40MDEtMy4wMDgtMS4yMDNTLS41IDE3LjQ5Mi0uNSAxNi4yODlWMy43MTFDLS41IDIuNTQ0LS4wOTkgMS41Ni43MDMuNzU4IDEuNTA1LS4wODEgMi41MDgtLjUgMy43MTEtLjV6TTMuODIgMi4zNDRjLS4zNjUgMC0uNTgzLjAzNi0uNjU2LjEwOWw5LjYyNSA2LjAxNmMuMjU1LjE0Ni41MjkuMjE5LjgyLjIxOXMuNTI5LS4wNzMuNzExLS4yMTlMMjQgMi40NTNjLS4wNzMtLjA3My0uMTgyLS4xMDktLjMyOC0uMTA5aC0uMzgzem0xOS40NjkgMTUuMzY3Yy45NDggMCAxLjQyMi0uNDc0IDEuNDIyLTEuNDIyVjUuNDA2bC04Ljk2OSA1LjU3OGE0LjEyIDQuMTIgMCAwIDEtMi4yNDIuNjU2Yy0uNzY2IDAtMS41MTMtLjIxOS0yLjI0Mi0uNjU2TDIuMjg5IDUuNDA2djEwLjg4M2MwIC45NDguNDc0IDEuNDIyIDEuNDIyIDEuNDIyeiIvPiYjeGE7PC9zdmc+;" vertex="1" parent="dNxyNK7c78bLwvsdeMH5-21">
          <mxGeometry x="1050" y="21.25" width="50" height="37.5" as="geometry" />
        </mxCell>
        <mxCell id="wKt88OQ0RYfQ3Xg1D4fU-113" value="" style="shape=image;editableCssRules=.*;verticalLabelPosition=bottom;labelBackgroundColor=default;verticalAlign=top;aspect=fixed;imageAspect=0;image=data:image/svg+xml,PHN2ZyB4bWxucz0iaHR0cDovL3d3dy53My5vcmcvMjAwMC9zdmciIHZpZXdCb3g9Ii0wLjUgLTAuNSAyOCAyMSIgaGVpZ2h0PSIyMSIgd2lkdGg9IjI4Ij4mI3hhOwkgIDxzdHlsZSB0eXBlPSJ0ZXh0L2NzcyI+JiN4YTsJCS5zdDB7c3RvcC1jb2xvcjojMDBjZWFjO30mI3hhOwkJLnN0MXtzdG9wLWNvbG9yOiMwNzgzOGY7fSYjeGE7CSAgPC9zdHlsZT4mI3hhOwk8ZGVmcz4mI3hhOwkJPGxpbmVhckdyYWRpZW50IGdyYWRpZW50VW5pdHM9InVzZXJTcGFjZU9uVXNlIiB5Mj0iMjMuMzI5IiB4Mj0iMTcuMzc1IiB5MT0iMi40ODEiIHgxPSIyLjAzOSIgaWQ9IkEiPiYjeGE7CQkJPHN0b3AgY2xhc3M9InN0MCIvPiYjeGE7CQkJPHN0b3AgY2xhc3M9InN0MSIgb2Zmc2V0PSIxIi8+JiN4YTsJCTwvbGluZWFyR3JhZGllbnQ+JiN4YTsJPC9kZWZzPiYjeGE7CTxwYXRoIGZpbGw9InVybCgjQSkiIGQ9Ik0yMy4yODktLjVjMS4yMDMgMCAyLjIwNi40MTkgMy4wMDggMS4yNTguODAyLjgwMiAxLjIwMyAxLjc4NiAxLjIwMyAyLjk1M3YxMi41NzhjMCAxLjIwMy0uNDAxIDIuMjA2LTEuMjAzIDMuMDA4UzI0LjQ5MiAyMC41IDIzLjI4OSAyMC41SDMuNzExYy0xLjIwMyAwLTIuMjA2LS40MDEtMy4wMDgtMS4yMDNTLS41IDE3LjQ5Mi0uNSAxNi4yODlWMy43MTFDLS41IDIuNTQ0LS4wOTkgMS41Ni43MDMuNzU4IDEuNTA1LS4wODEgMi41MDgtLjUgMy43MTEtLjV6TTMuODIgMi4zNDRjLS4zNjUgMC0uNTgzLjAzNi0uNjU2LjEwOWw5LjYyNSA2LjAxNmMuMjU1LjE0Ni41MjkuMjE5LjgyLjIxOXMuNTI5LS4wNzMuNzExLS4yMTlMMjQgMi40NTNjLS4wNzMtLjA3My0uMTgyLS4xMDktLjMyOC0uMTA5aC0uMzgzem0xOS40NjkgMTUuMzY3Yy45NDggMCAxLjQyMi0uNDc0IDEuNDIyLTEuNDIyVjUuNDA2bC04Ljk2OSA1LjU3OGE0LjEyIDQuMTIgMCAwIDEtMi4yNDIuNjU2Yy0uNzY2IDAtMS41MTMtLjIxOS0yLjI0Mi0uNjU2TDIuMjg5IDUuNDA2djEwLjg4M2MwIC45NDguNDc0IDEuNDIyIDEuNDIyIDEuNDIyeiIvPiYjeGE7PC9zdmc+;" vertex="1" parent="dNxyNK7c78bLwvsdeMH5-21">
          <mxGeometry x="1150" y="21.25" width="50" height="37.5" as="geometry" />
        </mxCell>
        <mxCell id="dNxyNK7c78bLwvsdeMH5-22" value="SAP S/4" style="swimlane;html=1;startSize=20;horizontal=0;" parent="dNxyNK7c78bLwvsdeMH5-19" vertex="1">
          <mxGeometry x="20" y="160" width="1260" height="80" as="geometry">
            <mxRectangle x="20" y="60" width="1010" height="30" as="alternateBounds" />
          </mxGeometry>
        </mxCell>
        <mxCell id="wKt88OQ0RYfQ3Xg1D4fU-98" value="" style="edgeStyle=orthogonalEdgeStyle;rounded=0;orthogonalLoop=1;jettySize=auto;html=1;" edge="1" parent="dNxyNK7c78bLwvsdeMH5-22" source="wKt88OQ0RYfQ3Xg1D4fU-82" target="wKt88OQ0RYfQ3Xg1D4fU-97">
          <mxGeometry relative="1" as="geometry" />
        </mxCell>
        <mxCell id="wKt88OQ0RYfQ3Xg1D4fU-82" value="" style="shape=image;editableCssRules=.*;verticalLabelPosition=bottom;labelBackgroundColor=default;verticalAlign=top;aspect=fixed;imageAspect=0;image=data:image/svg+xml,PHN2ZyB4bWxucz0iaHR0cDovL3d3dy53My5vcmcvMjAwMC9zdmciIHZpZXdCb3g9Ii0wLjUgLTAuNSAyOCAyMSIgaGVpZ2h0PSIyMSIgd2lkdGg9IjI4Ij4mI3hhOwkgIDxzdHlsZSB0eXBlPSJ0ZXh0L2NzcyI+LnN0MCB7IHN0b3AtY29sb3I6IHJnYigzNSwgMTQ5LCAyNTUpOyB9IC5zdDEgeyBzdG9wLWNvbG9yOiByZ2IoMCwgODcsIDIxMCk7IH0gPC9zdHlsZT4mI3hhOwk8ZGVmcz4mI3hhOwkJPGxpbmVhckdyYWRpZW50IGdyYWRpZW50VW5pdHM9InVzZXJTcGFjZU9uVXNlIiB5Mj0iMjMuMzI5IiB4Mj0iMTcuMzc1IiB5MT0iMi40ODEiIHgxPSIyLjAzOSIgaWQ9IkEiPiYjeGE7CQkJPHN0b3AgY2xhc3M9InN0MCIvPiYjeGE7CQkJPHN0b3AgY2xhc3M9InN0MSIgb2Zmc2V0PSIxIi8+JiN4YTsJCTwvbGluZWFyR3JhZGllbnQ+JiN4YTsJPC9kZWZzPiYjeGE7CTxwYXRoIGZpbGw9InVybCgjQSkiIGQ9Ik0yMy4yODktLjVjMS4yMDMgMCAyLjIwNi40MTkgMy4wMDggMS4yNTguODAyLjgwMiAxLjIwMyAxLjc4NiAxLjIwMyAyLjk1M3YxMi41NzhjMCAxLjIwMy0uNDAxIDIuMjA2LTEuMjAzIDMuMDA4UzI0LjQ5MiAyMC41IDIzLjI4OSAyMC41SDMuNzExYy0xLjIwMyAwLTIuMjA2LS40MDEtMy4wMDgtMS4yMDNTLS41IDE3LjQ5Mi0uNSAxNi4yODlWMy43MTFDLS41IDIuNTQ0LS4wOTkgMS41Ni43MDMuNzU4IDEuNTA1LS4wODEgMi41MDgtLjUgMy43MTEtLjV6TTMuODIgMi4zNDRjLS4zNjUgMC0uNTgzLjAzNi0uNjU2LjEwOWw5LjYyNSA2LjAxNmMuMjU1LjE0Ni41MjkuMjE5LjgyLjIxOXMuNTI5LS4wNzMuNzExLS4yMTlMMjQgMi40NTNjLS4wNzMtLjA3My0uMTgyLS4xMDktLjMyOC0uMTA5aC0uMzgzem0xOS40NjkgMTUuMzY3Yy45NDggMCAxLjQyMi0uNDc0IDEuNDIyLTEuNDIyVjUuNDA2bC04Ljk2OSA1LjU3OGE0LjEyIDQuMTIgMCAwIDEtMi4yNDIuNjU2Yy0uNzY2IDAtMS41MTMtLjIxOS0yLjI0Mi0uNjU2TDIuMjg5IDUuNDA2djEwLjg4M2MwIC45NDguNDc0IDEuNDIyIDEuNDIyIDEuNDIyeiIvPiYjeGE7PC9zdmc+;" vertex="1" parent="dNxyNK7c78bLwvsdeMH5-22">
          <mxGeometry x="620" y="21.25" width="50" height="37.5" as="geometry" />
        </mxCell>
        <mxCell id="wKt88OQ0RYfQ3Xg1D4fU-97" value="" style="shape=image;editableCssRules=.*;verticalLabelPosition=bottom;labelBackgroundColor=default;verticalAlign=top;aspect=fixed;imageAspect=0;image=data:image/svg+xml,PHN2ZyB4bWxucz0iaHR0cDovL3d3dy53My5vcmcvMjAwMC9zdmciIHZpZXdCb3g9Ii0wLjUgLTAuNSAyOCAyMSIgaGVpZ2h0PSIyMSIgd2lkdGg9IjI4Ij4mI3hhOwkgIDxzdHlsZSB0eXBlPSJ0ZXh0L2NzcyI+LnN0MCB7IHN0b3AtY29sb3I6IHJnYigzNSwgMTQ5LCAyNTUpOyB9IC5zdDEgeyBzdG9wLWNvbG9yOiByZ2IoMCwgODcsIDIxMCk7IH0gPC9zdHlsZT4mI3hhOwk8ZGVmcz4mI3hhOwkJPGxpbmVhckdyYWRpZW50IGdyYWRpZW50VW5pdHM9InVzZXJTcGFjZU9uVXNlIiB5Mj0iMjMuMzI5IiB4Mj0iMTcuMzc1IiB5MT0iMi40ODEiIHgxPSIyLjAzOSIgaWQ9IkEiPiYjeGE7CQkJPHN0b3AgY2xhc3M9InN0MCIvPiYjeGE7CQkJPHN0b3AgY2xhc3M9InN0MSIgb2Zmc2V0PSIxIi8+JiN4YTsJCTwvbGluZWFyR3JhZGllbnQ+JiN4YTsJPC9kZWZzPiYjeGE7CTxwYXRoIGZpbGw9InVybCgjQSkiIGQ9Ik0yMy4yODktLjVjMS4yMDMgMCAyLjIwNi40MTkgMy4wMDggMS4yNTguODAyLjgwMiAxLjIwMyAxLjc4NiAxLjIwMyAyLjk1M3YxMi41NzhjMCAxLjIwMy0uNDAxIDIuMjA2LTEuMjAzIDMuMDA4UzI0LjQ5MiAyMC41IDIzLjI4OSAyMC41SDMuNzExYy0xLjIwMyAwLTIuMjA2LS40MDEtMy4wMDgtMS4yMDNTLS41IDE3LjQ5Mi0uNSAxNi4yODlWMy43MTFDLS41IDIuNTQ0LS4wOTkgMS41Ni43MDMuNzU4IDEuNTA1LS4wODEgMi41MDgtLjUgMy43MTEtLjV6TTMuODIgMi4zNDRjLS4zNjUgMC0uNTgzLjAzNi0uNjU2LjEwOWw5LjYyNSA2LjAxNmMuMjU1LjE0Ni41MjkuMjE5LjgyLjIxOXMuNTI5LS4wNzMuNzExLS4yMTlMMjQgMi40NTNjLS4wNzMtLjA3My0uMTgyLS4xMDktLjMyOC0uMTA5aC0uMzgzem0xOS40NjkgMTUuMzY3Yy45NDggMCAxLjQyMi0uNDc0IDEuNDIyLTEuNDIyVjUuNDA2bC04Ljk2OSA1LjU3OGE0LjEyIDQuMTIgMCAwIDEtMi4yNDIuNjU2Yy0uNzY2IDAtMS41MTMtLjIxOS0yLjI0Mi0uNjU2TDIuMjg5IDUuNDA2djEwLjg4M2MwIC45NDguNDc0IDEuNDIyIDEuNDIyIDEuNDIyeiIvPiYjeGE7PC9zdmc+;" vertex="1" parent="dNxyNK7c78bLwvsdeMH5-22">
          <mxGeometry x="710" y="21.25" width="50" height="37.5" as="geometry" />
        </mxCell>
        <mxCell id="wKt88OQ0RYfQ3Xg1D4fU-6" value="Llama 3.2" style="swimlane;html=1;startSize=20;horizontal=0;" vertex="1" parent="dNxyNK7c78bLwvsdeMH5-19">
          <mxGeometry x="20" y="240" width="1260" height="80" as="geometry">
            <mxRectangle x="20" y="90" width="1010" height="30" as="alternateBounds" />
          </mxGeometry>
        </mxCell>
        <mxCell id="wKt88OQ0RYfQ3Xg1D4fU-68" value="" style="edgeStyle=orthogonalEdgeStyle;rounded=0;orthogonalLoop=1;jettySize=auto;html=1;" edge="1" parent="wKt88OQ0RYfQ3Xg1D4fU-6" source="wKt88OQ0RYfQ3Xg1D4fU-22" target="wKt88OQ0RYfQ3Xg1D4fU-67">
          <mxGeometry relative="1" as="geometry" />
        </mxCell>
        <mxCell id="wKt88OQ0RYfQ3Xg1D4fU-22" value="" style="sketch=0;points=[[0,0,0],[0.25,0,0],[0.5,0,0],[0.75,0,0],[1,0,0],[0,1,0],[0.25,1,0],[0.5,1,0],[0.75,1,0],[1,1,0],[0,0.25,0],[0,0.5,0],[0,0.75,0],[1,0.25,0],[1,0.5,0],[1,0.75,0]];outlineConnect=0;fontColor=#232F3E;fillColor=#01A88D;strokeColor=#ffffff;dashed=0;verticalLabelPosition=bottom;verticalAlign=top;align=center;html=1;fontSize=12;fontStyle=0;aspect=fixed;shape=mxgraph.aws4.resourceIcon;resIcon=mxgraph.aws4.augmented_ai;" vertex="1" parent="wKt88OQ0RYfQ3Xg1D4fU-6">
          <mxGeometry x="360" y="15" width="50" height="50" as="geometry" />
        </mxCell>
        <mxCell id="wKt88OQ0RYfQ3Xg1D4fU-66" value="" style="edgeStyle=orthogonalEdgeStyle;rounded=0;orthogonalLoop=1;jettySize=auto;html=1;" edge="1" parent="wKt88OQ0RYfQ3Xg1D4fU-6" source="wKt88OQ0RYfQ3Xg1D4fU-63" target="wKt88OQ0RYfQ3Xg1D4fU-22">
          <mxGeometry relative="1" as="geometry" />
        </mxCell>
        <mxCell id="wKt88OQ0RYfQ3Xg1D4fU-63" value="" style="shape=image;editableCssRules=.*;verticalLabelPosition=bottom;labelBackgroundColor=default;verticalAlign=top;aspect=fixed;imageAspect=0;image=data:image/svg+xml,PHN2ZyB4bWxucz0iaHR0cDovL3d3dy53My5vcmcvMjAwMC9zdmciIHZpZXdCb3g9Ii0wLjUgLTAuNSAyOCAyMSIgaGVpZ2h0PSIyMSIgd2lkdGg9IjI4Ij4mI3hhOwkgIDxzdHlsZSB0eXBlPSJ0ZXh0L2NzcyI+LnN0MCB7IHN0b3AtY29sb3I6IHJnYigzNSwgMTQ5LCAyNTUpOyB9IC5zdDEgeyBzdG9wLWNvbG9yOiByZ2IoMCwgODcsIDIxMCk7IH0gPC9zdHlsZT4mI3hhOwk8ZGVmcz4mI3hhOwkJPGxpbmVhckdyYWRpZW50IGdyYWRpZW50VW5pdHM9InVzZXJTcGFjZU9uVXNlIiB5Mj0iMjMuMzI5IiB4Mj0iMTcuMzc1IiB5MT0iMi40ODEiIHgxPSIyLjAzOSIgaWQ9IkEiPiYjeGE7CQkJPHN0b3AgY2xhc3M9InN0MCIvPiYjeGE7CQkJPHN0b3AgY2xhc3M9InN0MSIgb2Zmc2V0PSIxIi8+JiN4YTsJCTwvbGluZWFyR3JhZGllbnQ+JiN4YTsJPC9kZWZzPiYjeGE7CTxwYXRoIGZpbGw9InVybCgjQSkiIGQ9Ik0yMy4yODktLjVjMS4yMDMgMCAyLjIwNi40MTkgMy4wMDggMS4yNTguODAyLjgwMiAxLjIwMyAxLjc4NiAxLjIwMyAyLjk1M3YxMi41NzhjMCAxLjIwMy0uNDAxIDIuMjA2LTEuMjAzIDMuMDA4UzI0LjQ5MiAyMC41IDIzLjI4OSAyMC41SDMuNzExYy0xLjIwMyAwLTIuMjA2LS40MDEtMy4wMDgtMS4yMDNTLS41IDE3LjQ5Mi0uNSAxNi4yODlWMy43MTFDLS41IDIuNTQ0LS4wOTkgMS41Ni43MDMuNzU4IDEuNTA1LS4wODEgMi41MDgtLjUgMy43MTEtLjV6TTMuODIgMi4zNDRjLS4zNjUgMC0uNTgzLjAzNi0uNjU2LjEwOWw5LjYyNSA2LjAxNmMuMjU1LjE0Ni41MjkuMjE5LjgyLjIxOXMuNTI5LS4wNzMuNzExLS4yMTlMMjQgMi40NTNjLS4wNzMtLjA3My0uMTgyLS4xMDktLjMyOC0uMTA5aC0uMzgzem0xOS40NjkgMTUuMzY3Yy45NDggMCAxLjQyMi0uNDc0IDEuNDIyLTEuNDIyVjUuNDA2bC04Ljk2OSA1LjU3OGE0LjEyIDQuMTIgMCAwIDEtMi4yNDIuNjU2Yy0uNzY2IDAtMS41MTMtLjIxOS0yLjI0Mi0uNjU2TDIuMjg5IDUuNDA2djEwLjg4M2MwIC45NDguNDc0IDEuNDIyIDEuNDIyIDEuNDIyeiIvPiYjeGE7PC9zdmc+;" vertex="1" parent="wKt88OQ0RYfQ3Xg1D4fU-6">
          <mxGeometry x="274" y="21.25" width="50" height="37.5" as="geometry" />
        </mxCell>
        <mxCell id="wKt88OQ0RYfQ3Xg1D4fU-67" value="" style="shape=image;editableCssRules=.*;verticalLabelPosition=bottom;labelBackgroundColor=default;verticalAlign=top;aspect=fixed;imageAspect=0;image=data:image/svg+xml,PHN2ZyB4bWxucz0iaHR0cDovL3d3dy53My5vcmcvMjAwMC9zdmciIHZpZXdCb3g9Ii0wLjUgLTAuNSAyOCAyMSIgaGVpZ2h0PSIyMSIgd2lkdGg9IjI4Ij4mI3hhOwkgIDxzdHlsZSB0eXBlPSJ0ZXh0L2NzcyI+LnN0MCB7IHN0b3AtY29sb3I6IHJnYig5MSwgMTE1LCAxMzkpOyB9IC5zdDEgeyBzdG9wLWNvbG9yOiByZ2IoMzQsIDUzLCA3Mik7IH0gPC9zdHlsZT4mI3hhOwk8ZGVmcz4mI3hhOwkJPGxpbmVhckdyYWRpZW50IGdyYWRpZW50VW5pdHM9InVzZXJTcGFjZU9uVXNlIiB5Mj0iMjMuMzI5IiB4Mj0iMTcuMzc1IiB5MT0iMi40ODEiIHgxPSIyLjAzOSIgaWQ9IkEiPiYjeGE7CQkJPHN0b3AgY2xhc3M9InN0MCIvPiYjeGE7CQkJPHN0b3AgY2xhc3M9InN0MSIgb2Zmc2V0PSIxIi8+JiN4YTsJCTwvbGluZWFyR3JhZGllbnQ+JiN4YTsJPC9kZWZzPiYjeGE7CTxwYXRoIGZpbGw9InVybCgjQSkiIGQ9Ik0yMy4yODktLjVjMS4yMDMgMCAyLjIwNi40MTkgMy4wMDggMS4yNTguODAyLjgwMiAxLjIwMyAxLjc4NiAxLjIwMyAyLjk1M3YxMi41NzhjMCAxLjIwMy0uNDAxIDIuMjA2LTEuMjAzIDMuMDA4UzI0LjQ5MiAyMC41IDIzLjI4OSAyMC41SDMuNzExYy0xLjIwMyAwLTIuMjA2LS40MDEtMy4wMDgtMS4yMDNTLS41IDE3LjQ5Mi0uNSAxNi4yODlWMy43MTFDLS41IDIuNTQ0LS4wOTkgMS41Ni43MDMuNzU4IDEuNTA1LS4wODEgMi41MDgtLjUgMy43MTEtLjV6TTMuODIgMi4zNDRjLS4zNjUgMC0uNTgzLjAzNi0uNjU2LjEwOWw5LjYyNSA2LjAxNmMuMjU1LjE0Ni41MjkuMjE5LjgyLjIxOXMuNTI5LS4wNzMuNzExLS4yMTlMMjQgMi40NTNjLS4wNzMtLjA3My0uMTgyLS4xMDktLjMyOC0uMTA5aC0uMzgzem0xOS40NjkgMTUuMzY3Yy45NDggMCAxLjQyMi0uNDc0IDEuNDIyLTEuNDIyVjUuNDA2bC04Ljk2OSA1LjU3OGE0LjEyIDQuMTIgMCAwIDEtMi4yNDIuNjU2Yy0uNzY2IDAtMS41MTMtLjIxOS0yLjI0Mi0uNjU2TDIuMjg5IDUuNDA2djEwLjg4M2MwIC45NDguNDc0IDEuNDIyIDEuNDIyIDEuNDIyeiIvPiYjeGE7PC9zdmc+;" vertex="1" parent="wKt88OQ0RYfQ3Xg1D4fU-6">
          <mxGeometry x="440" y="21.25" width="50" height="37.5" as="geometry" />
        </mxCell>
        <mxCell id="wKt88OQ0RYfQ3Xg1D4fU-106" value="" style="edgeStyle=orthogonalEdgeStyle;rounded=0;orthogonalLoop=1;jettySize=auto;html=1;" edge="1" parent="wKt88OQ0RYfQ3Xg1D4fU-6" source="wKt88OQ0RYfQ3Xg1D4fU-103" target="wKt88OQ0RYfQ3Xg1D4fU-105">
          <mxGeometry relative="1" as="geometry" />
        </mxCell>
        <mxCell id="wKt88OQ0RYfQ3Xg1D4fU-103" value="" style="shape=image;editableCssRules=.*;verticalLabelPosition=bottom;labelBackgroundColor=default;verticalAlign=top;aspect=fixed;imageAspect=0;image=data:image/svg+xml,PHN2ZyB4bWxucz0iaHR0cDovL3d3dy53My5vcmcvMjAwMC9zdmciIHZpZXdCb3g9Ii0wLjUgLTAuNSAyOCAyMSIgaGVpZ2h0PSIyMSIgd2lkdGg9IjI4Ij4mI3hhOwkgIDxzdHlsZSB0eXBlPSJ0ZXh0L2NzcyI+LnN0MCB7IHN0b3AtY29sb3I6IHJnYigzNSwgMTQ5LCAyNTUpOyB9IC5zdDEgeyBzdG9wLWNvbG9yOiByZ2IoMCwgODcsIDIxMCk7IH0gPC9zdHlsZT4mI3hhOwk8ZGVmcz4mI3hhOwkJPGxpbmVhckdyYWRpZW50IGdyYWRpZW50VW5pdHM9InVzZXJTcGFjZU9uVXNlIiB5Mj0iMjMuMzI5IiB4Mj0iMTcuMzc1IiB5MT0iMi40ODEiIHgxPSIyLjAzOSIgaWQ9IkEiPiYjeGE7CQkJPHN0b3AgY2xhc3M9InN0MCIvPiYjeGE7CQkJPHN0b3AgY2xhc3M9InN0MSIgb2Zmc2V0PSIxIi8+JiN4YTsJCTwvbGluZWFyR3JhZGllbnQ+JiN4YTsJPC9kZWZzPiYjeGE7CTxwYXRoIGZpbGw9InVybCgjQSkiIGQ9Ik0yMy4yODktLjVjMS4yMDMgMCAyLjIwNi40MTkgMy4wMDggMS4yNTguODAyLjgwMiAxLjIwMyAxLjc4NiAxLjIwMyAyLjk1M3YxMi41NzhjMCAxLjIwMy0uNDAxIDIuMjA2LTEuMjAzIDMuMDA4UzI0LjQ5MiAyMC41IDIzLjI4OSAyMC41SDMuNzExYy0xLjIwMyAwLTIuMjA2LS40MDEtMy4wMDgtMS4yMDNTLS41IDE3LjQ5Mi0uNSAxNi4yODlWMy43MTFDLS41IDIuNTQ0LS4wOTkgMS41Ni43MDMuNzU4IDEuNTA1LS4wODEgMi41MDgtLjUgMy43MTEtLjV6TTMuODIgMi4zNDRjLS4zNjUgMC0uNTgzLjAzNi0uNjU2LjEwOWw5LjYyNSA2LjAxNmMuMjU1LjE0Ni41MjkuMjE5LjgyLjIxOXMuNTI5LS4wNzMuNzExLS4yMTlMMjQgMi40NTNjLS4wNzMtLjA3My0uMTgyLS4xMDktLjMyOC0uMTA5aC0uMzgzem0xOS40NjkgMTUuMzY3Yy45NDggMCAxLjQyMi0uNDc0IDEuNDIyLTEuNDIyVjUuNDA2bC04Ljk2OSA1LjU3OGE0LjEyIDQuMTIgMCAwIDEtMi4yNDIuNjU2Yy0uNzY2IDAtMS41MTMtLjIxOS0yLjI0Mi0uNjU2TDIuMjg5IDUuNDA2djEwLjg4M2MwIC45NDguNDc0IDEuNDIyIDEuNDIyIDEuNDIyeiIvPiYjeGE7PC9zdmc+;" vertex="1" parent="wKt88OQ0RYfQ3Xg1D4fU-6">
          <mxGeometry x="870" y="21.25" width="50" height="37.5" as="geometry" />
        </mxCell>
        <mxCell id="wKt88OQ0RYfQ3Xg1D4fU-108" value="" style="edgeStyle=orthogonalEdgeStyle;rounded=0;orthogonalLoop=1;jettySize=auto;html=1;" edge="1" parent="wKt88OQ0RYfQ3Xg1D4fU-6" source="wKt88OQ0RYfQ3Xg1D4fU-105" target="wKt88OQ0RYfQ3Xg1D4fU-107">
          <mxGeometry relative="1" as="geometry" />
        </mxCell>
        <mxCell id="wKt88OQ0RYfQ3Xg1D4fU-105" value="" style="sketch=0;points=[[0,0,0],[0.25,0,0],[0.5,0,0],[0.75,0,0],[1,0,0],[0,1,0],[0.25,1,0],[0.5,1,0],[0.75,1,0],[1,1,0],[0,0.25,0],[0,0.5,0],[0,0.75,0],[1,0.25,0],[1,0.5,0],[1,0.75,0]];outlineConnect=0;fontColor=#232F3E;fillColor=#01A88D;strokeColor=#ffffff;dashed=0;verticalLabelPosition=bottom;verticalAlign=top;align=center;html=1;fontSize=12;fontStyle=0;aspect=fixed;shape=mxgraph.aws4.resourceIcon;resIcon=mxgraph.aws4.augmented_ai;" vertex="1" parent="wKt88OQ0RYfQ3Xg1D4fU-6">
          <mxGeometry x="960" y="15" width="50" height="50" as="geometry" />
        </mxCell>
        <mxCell id="wKt88OQ0RYfQ3Xg1D4fU-107" value="" style="shape=image;editableCssRules=.*;verticalLabelPosition=bottom;labelBackgroundColor=default;verticalAlign=top;aspect=fixed;imageAspect=0;image=data:image/svg+xml,PHN2ZyB4bWxucz0iaHR0cDovL3d3dy53My5vcmcvMjAwMC9zdmciIHZpZXdCb3g9Ii0wLjUgLTAuNSAyOCAyMSIgaGVpZ2h0PSIyMSIgd2lkdGg9IjI4Ij4mI3hhOwkgIDxzdHlsZSB0eXBlPSJ0ZXh0L2NzcyI+JiN4YTsJCS5zdDB7c3RvcC1jb2xvcjojMDBjZWFjO30mI3hhOwkJLnN0MXtzdG9wLWNvbG9yOiMwNzgzOGY7fSYjeGE7CSAgPC9zdHlsZT4mI3hhOwk8ZGVmcz4mI3hhOwkJPGxpbmVhckdyYWRpZW50IGdyYWRpZW50VW5pdHM9InVzZXJTcGFjZU9uVXNlIiB5Mj0iMjMuMzI5IiB4Mj0iMTcuMzc1IiB5MT0iMi40ODEiIHgxPSIyLjAzOSIgaWQ9IkEiPiYjeGE7CQkJPHN0b3AgY2xhc3M9InN0MCIvPiYjeGE7CQkJPHN0b3AgY2xhc3M9InN0MSIgb2Zmc2V0PSIxIi8+JiN4YTsJCTwvbGluZWFyR3JhZGllbnQ+JiN4YTsJPC9kZWZzPiYjeGE7CTxwYXRoIGZpbGw9InVybCgjQSkiIGQ9Ik0yMy4yODktLjVjMS4yMDMgMCAyLjIwNi40MTkgMy4wMDggMS4yNTguODAyLjgwMiAxLjIwMyAxLjc4NiAxLjIwMyAyLjk1M3YxMi41NzhjMCAxLjIwMy0uNDAxIDIuMjA2LTEuMjAzIDMuMDA4UzI0LjQ5MiAyMC41IDIzLjI4OSAyMC41SDMuNzExYy0xLjIwMyAwLTIuMjA2LS40MDEtMy4wMDgtMS4yMDNTLS41IDE3LjQ5Mi0uNSAxNi4yODlWMy43MTFDLS41IDIuNTQ0LS4wOTkgMS41Ni43MDMuNzU4IDEuNTA1LS4wODEgMi41MDgtLjUgMy43MTEtLjV6TTMuODIgMi4zNDRjLS4zNjUgMC0uNTgzLjAzNi0uNjU2LjEwOWw5LjYyNSA2LjAxNmMuMjU1LjE0Ni41MjkuMjE5LjgyLjIxOXMuNTI5LS4wNzMuNzExLS4yMTlMMjQgMi40NTNjLS4wNzMtLjA3My0uMTgyLS4xMDktLjMyOC0uMTA5aC0uMzgzem0xOS40NjkgMTUuMzY3Yy45NDggMCAxLjQyMi0uNDc0IDEuNDIyLTEuNDIyVjUuNDA2bC04Ljk2OSA1LjU3OGE0LjEyIDQuMTIgMCAwIDEtMi4yNDIuNjU2Yy0uNzY2IDAtMS41MTMtLjIxOS0yLjI0Mi0uNjU2TDIuMjg5IDUuNDA2djEwLjg4M2MwIC45NDguNDc0IDEuNDIyIDEuNDIyIDEuNDIyeiIvPiYjeGE7PC9zdmc+;" vertex="1" parent="wKt88OQ0RYfQ3Xg1D4fU-6">
          <mxGeometry x="1050" y="21.25" width="50" height="37.5" as="geometry" />
        </mxCell>
        <mxCell id="wKt88OQ0RYfQ3Xg1D4fU-58" value="" style="edgeStyle=orthogonalEdgeStyle;rounded=0;orthogonalLoop=1;jettySize=auto;html=1;" edge="1" parent="dNxyNK7c78bLwvsdeMH5-19" source="wKt88OQ0RYfQ3Xg1D4fU-56" target="wKt88OQ0RYfQ3Xg1D4fU-16">
          <mxGeometry relative="1" as="geometry" />
        </mxCell>
        <mxCell id="wKt88OQ0RYfQ3Xg1D4fU-59" value="Rest" style="edgeLabel;html=1;align=center;verticalAlign=middle;resizable=0;points=[];" vertex="1" connectable="0" parent="wKt88OQ0RYfQ3Xg1D4fU-58">
          <mxGeometry x="-0.3938" y="1" relative="1" as="geometry">
            <mxPoint as="offset" />
          </mxGeometry>
        </mxCell>
        <mxCell id="wKt88OQ0RYfQ3Xg1D4fU-64" style="edgeStyle=orthogonalEdgeStyle;rounded=0;orthogonalLoop=1;jettySize=auto;html=1;entryX=0.5;entryY=0;entryDx=0;entryDy=0;" edge="1" parent="dNxyNK7c78bLwvsdeMH5-19" source="wKt88OQ0RYfQ3Xg1D4fU-55" target="wKt88OQ0RYfQ3Xg1D4fU-63">
          <mxGeometry relative="1" as="geometry" />
        </mxCell>
        <mxCell id="wKt88OQ0RYfQ3Xg1D4fU-65" value="Rest" style="edgeLabel;html=1;align=center;verticalAlign=middle;resizable=0;points=[];" vertex="1" connectable="0" parent="wKt88OQ0RYfQ3Xg1D4fU-64">
          <mxGeometry x="0.0879" y="-1" relative="1" as="geometry">
            <mxPoint as="offset" />
          </mxGeometry>
        </mxCell>
        <mxCell id="wKt88OQ0RYfQ3Xg1D4fU-71" style="edgeStyle=orthogonalEdgeStyle;rounded=0;orthogonalLoop=1;jettySize=auto;html=1;entryX=0.5;entryY=1;entryDx=0;entryDy=0;" edge="1" parent="dNxyNK7c78bLwvsdeMH5-19" source="wKt88OQ0RYfQ3Xg1D4fU-67" target="wKt88OQ0RYfQ3Xg1D4fU-70">
          <mxGeometry relative="1" as="geometry" />
        </mxCell>
        <mxCell id="wKt88OQ0RYfQ3Xg1D4fU-88" value="" style="edgeStyle=orthogonalEdgeStyle;rounded=0;orthogonalLoop=1;jettySize=auto;html=1;" edge="1" parent="dNxyNK7c78bLwvsdeMH5-19" source="wKt88OQ0RYfQ3Xg1D4fU-76" target="wKt88OQ0RYfQ3Xg1D4fU-82">
          <mxGeometry relative="1" as="geometry" />
        </mxCell>
        <mxCell id="wKt88OQ0RYfQ3Xg1D4fU-91" value="OData" style="edgeLabel;html=1;align=center;verticalAlign=middle;resizable=0;points=[];" vertex="1" connectable="0" parent="wKt88OQ0RYfQ3Xg1D4fU-88">
          <mxGeometry x="0.1638" relative="1" as="geometry">
            <mxPoint as="offset" />
          </mxGeometry>
        </mxCell>
        <mxCell id="wKt88OQ0RYfQ3Xg1D4fU-90" value="" style="edgeStyle=orthogonalEdgeStyle;rounded=0;orthogonalLoop=1;jettySize=auto;html=1;" edge="1" parent="dNxyNK7c78bLwvsdeMH5-19" source="wKt88OQ0RYfQ3Xg1D4fU-76" target="wKt88OQ0RYfQ3Xg1D4fU-89">
          <mxGeometry relative="1" as="geometry" />
        </mxCell>
        <mxCell id="wKt88OQ0RYfQ3Xg1D4fU-100" value="" style="edgeStyle=orthogonalEdgeStyle;rounded=0;orthogonalLoop=1;jettySize=auto;html=1;" edge="1" parent="dNxyNK7c78bLwvsdeMH5-19" source="wKt88OQ0RYfQ3Xg1D4fU-97" target="wKt88OQ0RYfQ3Xg1D4fU-99">
          <mxGeometry relative="1" as="geometry" />
        </mxCell>
        <mxCell id="wKt88OQ0RYfQ3Xg1D4fU-104" style="edgeStyle=orthogonalEdgeStyle;rounded=0;orthogonalLoop=1;jettySize=auto;html=1;entryX=0.5;entryY=0;entryDx=0;entryDy=0;" edge="1" parent="dNxyNK7c78bLwvsdeMH5-19" source="wKt88OQ0RYfQ3Xg1D4fU-101" target="wKt88OQ0RYfQ3Xg1D4fU-103">
          <mxGeometry relative="1" as="geometry" />
        </mxCell>
        <mxCell id="wKt88OQ0RYfQ3Xg1D4fU-111" value="Rest" style="edgeLabel;html=1;align=center;verticalAlign=middle;resizable=0;points=[];" vertex="1" connectable="0" parent="wKt88OQ0RYfQ3Xg1D4fU-104">
          <mxGeometry x="-0.1079" y="-2" relative="1" as="geometry">
            <mxPoint as="offset" />
          </mxGeometry>
        </mxCell>
        <mxCell id="wKt88OQ0RYfQ3Xg1D4fU-110" style="edgeStyle=orthogonalEdgeStyle;rounded=0;orthogonalLoop=1;jettySize=auto;html=1;entryX=0.5;entryY=1;entryDx=0;entryDy=0;" edge="1" parent="dNxyNK7c78bLwvsdeMH5-19" source="wKt88OQ0RYfQ3Xg1D4fU-107" target="wKt88OQ0RYfQ3Xg1D4fU-109">
          <mxGeometry relative="1" as="geometry" />
        </mxCell>
        <mxCell id="wKt88OQ0RYfQ3Xg1D4fU-115" value="" style="edgeStyle=orthogonalEdgeStyle;rounded=0;orthogonalLoop=1;jettySize=auto;html=1;" edge="1" parent="dNxyNK7c78bLwvsdeMH5-19" source="wKt88OQ0RYfQ3Xg1D4fU-113" target="wKt88OQ0RYfQ3Xg1D4fU-112">
          <mxGeometry relative="1" as="geometry" />
        </mxCell>
      </root>
    </mxGraphModel>
  </diagram>
</mxfile>
